<?xml version="1.0" encoding="UTF-8"?>
<svg xmlns="http://www.w3.org/2000/svg" version="1.1" viewBox="0 0 900 900">
  <!-- Generator: Adobe Illustrator 28.6.0, SVG Export Plug-In . SVG Version: 1.2.0 Build 709)  -->
  <defs>
    <style>
      .cls-1 {
        stroke: #000;
        stroke-miterlimit: 10;
        fill: #000;
      }
    </style>
  </defs>
  <g>
    <g id="Ebene_1">
      <g id="Ebene_1-2" data-name="Ebene_1">
        <polygon class="cls-1" points="132.7 813.4 506.2 597.1 447.6 562.4 12.8 813.7 132.7 813.4"/>
        <polygon class="cls-1" points="569.3 633.5 259.4 813.7 382.2 812.9 631.2 669.1 569.3 633.5"/>
        <polygon class="cls-1" points="693.8 705.2 507.6 813.6 630.4 812.7 755.6 740.7 693.8 705.2"/>
        <polyline class="cls-1" points="818.7 776.7 756.7 813.7 882.7 813.7 818.7 776.7"/>
        <polygon class="cls-1" points="822.6 709.6 448.6 494.1 447.8 562.2 882.7 813.3 822.6 709.6"/>
        <polygon class="cls-1" points="447.6 421.3 758.6 599.7 696.5 493.7 447.5 349.8 447.6 421.3"/>
        <polygon class="cls-1" points="447.6 277.6 634.5 384.7 572.5 278.8 447.5 206.3 447.6 277.6"/>
        <polyline class="cls-1" points="448 133.8 511.2 168.8 447.8 59.9 448 133.8"/>
        <polygon class="cls-1" points="387.3 164.2 388.3 595.8 447.5 562.3 446.9 60.1 387.3 164.2"/>
        <polygon class="cls-1" points="325.3 632.3 323.8 273.8 263.2 380.7 263.5 668.2 325.3 632.3"/>
        <polygon class="cls-1" points="201 704.4 200 489 139.4 595.8 139.3 740.2 201 704.4"/>
        <polyline class="cls-1" points="76.6 776.9 75.5 704.7 12.6 813.9 76.6 776.9"/>
      </g>
    </g>
  </g>
</svg>